<?xml version="1.0" standalone="no"?>
<!DOCTYPE svg PUBLIC "-//W3C//DTD SVG 20010904//EN"
 "http://www.w3.org/TR/2001/REC-SVG-20010904/DTD/svg10.dtd">
<svg version="1.0" xmlns="http://www.w3.org/2000/svg"
 width="512.000000pt" height="512.000000pt" viewBox="0 0 512.000000 512.000000"
 preserveAspectRatio="xMidYMid meet">
<metadata>
Created by potrace 1.11, written by Peter Selinger 2001-2013
</metadata>
<g transform="translate(0.000000,512.000000) scale(0.100000,-0.100000)"
fill="#000000" stroke="none">
<path d="M381 5104 c-175 -47 -320 -193 -366 -369 -13 -52 -15 -307 -15 -2175
0 -1868 2 -2123 15 -2175 47 -178 192 -323 370 -370 52 -13 307 -15 2175 -15
1868 0 2123 2 2175 15 178 47 323 192 370 370 13 52 15 307 15 2175 0 1868 -2
2123 -15 2175 -47 178 -192 323 -370 370 -52 13 -306 15 -2180 14 -1818 0
-2128 -2 -2174 -15z m1069 -1409 l0 -65 -295 0 -295 0 0 -1075 0 -1075 295 0
295 0 0 -60 0 -60 -390 0 -390 0 0 1200 0 1200 390 0 390 0 0 -65z m3000
-1135 l0 -1200 -385 0 -385 0 0 60 0 60 295 0 295 0 0 1075 0 1075 -295 0
-295 0 0 65 0 65 385 0 385 0 0 -1200z"/>
</g>
</svg>
