<svg xmlns="http://www.w3.org/2000/svg" version="1.1" xmlns:xlink="http://www.w3.org/1999/xlink" xmlns:svgjs="http://svgjs.com/svgjs" width="800" height="500"><rect width="100" height="100" fill="#b6dce3" x="0" y="0"></rect><rect width="100" height="100" fill="#a9dae2" x="100" y="0"></rect><rect width="100" height="100" fill="#ebf5f7" x="200" y="0"></rect><rect width="100" height="100" fill="#fcfafa" x="300" y="0"></rect><rect width="100" height="100" fill="#f9f9fa" x="400" y="0"></rect><rect width="100" height="100" fill="#f9fafa" x="500" y="0"></rect><rect width="100" height="100" fill="#f9fafa" x="600" y="0"></rect><rect width="100" height="100" fill="#fafafa" x="700" y="0"></rect><rect width="100" height="100" fill="#fff9f8" x="0" y="100"></rect><rect width="100" height="100" fill="#f0e8e7" x="100" y="100"></rect><rect width="100" height="100" fill="#f3f2f2" x="200" y="100"></rect><rect width="100" height="100" fill="#f5f5f6" x="300" y="100"></rect><rect width="100" height="100" fill="#fdfefe" x="400" y="100"></rect><rect width="100" height="100" fill="#fffefe" x="500" y="100"></rect><rect width="100" height="100" fill="#ffffff" x="600" y="100"></rect><rect width="100" height="100" fill="#fefefe" x="700" y="100"></rect><rect width="100" height="100" fill="#e2e3e5" x="0" y="200"></rect><rect width="100" height="100" fill="#58524d" x="100" y="200"></rect><rect width="100" height="100" fill="#4d453c" x="200" y="200"></rect><rect width="100" height="100" fill="#e1e1e2" x="300" y="200"></rect><rect width="100" height="100" fill="#f2f1f1" x="400" y="200"></rect><rect width="100" height="100" fill="#dff0f3" x="500" y="200"></rect><rect width="100" height="100" fill="#cee9ed" x="600" y="200"></rect><rect width="100" height="100" fill="#fefefe" x="700" y="200"></rect><rect width="100" height="100" fill="#f2f0ef" x="0" y="300"></rect><rect width="100" height="100" fill="#ada8a5" x="100" y="300"></rect><rect width="100" height="100" fill="#a29e9a" x="200" y="300"></rect><rect width="100" height="100" fill="#f5f5f5" x="300" y="300"></rect><rect width="100" height="100" fill="#fafafa" x="400" y="300"></rect><rect width="100" height="100" fill="#f6fbfc" x="500" y="300"></rect><rect width="100" height="100" fill="#f3fafb" x="600" y="300"></rect><rect width="100" height="100" fill="#fefeff" x="700" y="300"></rect><rect width="100" height="100" fill="#ffffff" x="0" y="400"></rect><rect width="100" height="100" fill="#ffffff" x="100" y="400"></rect><rect width="100" height="100" fill="#ffffff" x="200" y="400"></rect><rect width="100" height="100" fill="#fefefe" x="300" y="400"></rect><rect width="100" height="100" fill="#fefefe" x="400" y="400"></rect><rect width="100" height="100" fill="#fcfcfd" x="500" y="400"></rect><rect width="100" height="100" fill="#f6fafb" x="600" y="400"></rect><rect width="100" height="100" fill="#fefdfd" x="700" y="400"></rect></svg>