<svg xmlns="http://www.w3.org/2000/svg" version="1.1" xmlns:xlink="http://www.w3.org/1999/xlink" xmlns:svgjs="http://svgjs.com/svgjs" width="800" height="500"><rect width="100" height="100" fill="#c0bdc1" x="0" y="0"></rect><rect width="100" height="100" fill="#d9d6cb" x="100" y="0"></rect><rect width="100" height="100" fill="#b9aaa3" x="200" y="0"></rect><rect width="100" height="100" fill="#c1b6b8" x="300" y="0"></rect><rect width="100" height="100" fill="#c0c2c2" x="400" y="0"></rect><rect width="100" height="100" fill="#c1c1c1" x="500" y="0"></rect><rect width="100" height="100" fill="#bfbfbf" x="600" y="0"></rect><rect width="100" height="100" fill="#cdcdcd" x="700" y="0"></rect><rect width="100" height="100" fill="#a4b9a9" x="0" y="100"></rect><rect width="100" height="100" fill="#d8dad1" x="100" y="100"></rect><rect width="100" height="100" fill="#c1b7b5" x="200" y="100"></rect><rect width="100" height="100" fill="#eee8e9" x="300" y="100"></rect><rect width="100" height="100" fill="#fbfcfb" x="400" y="100"></rect><rect width="100" height="100" fill="#f8f8f8" x="500" y="100"></rect><rect width="100" height="100" fill="#f9f9f9" x="600" y="100"></rect><rect width="100" height="100" fill="#fbfbfb" x="700" y="100"></rect><rect width="100" height="100" fill="#d8e6da" x="0" y="200"></rect><rect width="100" height="100" fill="#f2f6f5" x="100" y="200"></rect><rect width="100" height="100" fill="#eef1f1" x="200" y="200"></rect><rect width="100" height="100" fill="#fafbfb" x="300" y="200"></rect><rect width="100" height="100" fill="#fefefe" x="400" y="200"></rect><rect width="100" height="100" fill="#fdfdfd" x="500" y="200"></rect><rect width="100" height="100" fill="#fefefe" x="600" y="200"></rect><rect width="100" height="100" fill="#ffffff" x="700" y="200"></rect><rect width="100" height="100" fill="#ffffff" x="0" y="300"></rect><rect width="100" height="100" fill="#edf4ec" x="100" y="300"></rect><rect width="100" height="100" fill="#dfede0" x="200" y="300"></rect><rect width="100" height="100" fill="#f7f7f7" x="300" y="300"></rect><rect width="100" height="100" fill="#f8f9f9" x="400" y="300"></rect><rect width="100" height="100" fill="#ffffff" x="500" y="300"></rect><rect width="100" height="100" fill="#ffffff" x="600" y="300"></rect><rect width="100" height="100" fill="#fefefe" x="700" y="300"></rect><rect width="100" height="100" fill="#ffffff" x="0" y="400"></rect><rect width="100" height="100" fill="#f6f7f6" x="100" y="400"></rect><rect width="100" height="100" fill="#d6d7d6" x="200" y="400"></rect><rect width="100" height="100" fill="#cfd1d0" x="300" y="400"></rect><rect width="100" height="100" fill="#e4e5e4" x="400" y="400"></rect><rect width="100" height="100" fill="#fffefe" x="500" y="400"></rect><rect width="100" height="100" fill="#fdfdfd" x="600" y="400"></rect><rect width="100" height="100" fill="#fdfdfd" x="700" y="400"></rect></svg>