<svg xmlns="http://www.w3.org/2000/svg" version="1.1" xmlns:xlink="http://www.w3.org/1999/xlink" xmlns:svgjs="http://svgjs.com/svgjs" width="800" height="500"><rect width="100" height="100" fill="#a3e3ca" x="0" y="0"></rect><rect width="100" height="100" fill="#9ce3c8" x="100" y="0"></rect><rect width="100" height="100" fill="#9ee4c9" x="200" y="0"></rect><rect width="100" height="100" fill="#a0e4ca" x="300" y="0"></rect><rect width="100" height="100" fill="#a0e4ca" x="400" y="0"></rect><rect width="100" height="100" fill="#a0e4ca" x="500" y="0"></rect><rect width="100" height="100" fill="#a1e5ca" x="600" y="0"></rect><rect width="100" height="100" fill="#9fe4c9" x="700" y="0"></rect><rect width="100" height="100" fill="#fffdff" x="0" y="100"></rect><rect width="100" height="100" fill="#ffffff" x="100" y="100"></rect><rect width="100" height="100" fill="#ffffff" x="200" y="100"></rect><rect width="100" height="100" fill="#ffffff" x="300" y="100"></rect><rect width="100" height="100" fill="#ffffff" x="400" y="100"></rect><rect width="100" height="100" fill="#ffffff" x="500" y="100"></rect><rect width="100" height="100" fill="#ffffff" x="600" y="100"></rect><rect width="100" height="100" fill="#ffffff" x="700" y="100"></rect><rect width="100" height="100" fill="#eef7f6" x="0" y="200"></rect><rect width="100" height="100" fill="#e9f5f3" x="100" y="200"></rect><rect width="100" height="100" fill="#e9f5f3" x="200" y="200"></rect><rect width="100" height="100" fill="#eaf7f5" x="300" y="200"></rect><rect width="100" height="100" fill="#ebf7f5" x="400" y="200"></rect><rect width="100" height="100" fill="#e9f6f4" x="500" y="200"></rect><rect width="100" height="100" fill="#e6f3f1" x="600" y="200"></rect><rect width="100" height="100" fill="#f5fbf9" x="700" y="200"></rect><rect width="100" height="100" fill="#f8fbfb" x="0" y="300"></rect><rect width="100" height="100" fill="#f6fbfa" x="100" y="300"></rect><rect width="100" height="100" fill="#f7fbfb" x="200" y="300"></rect><rect width="100" height="100" fill="#f7fcfb" x="300" y="300"></rect><rect width="100" height="100" fill="#f7fcfb" x="400" y="300"></rect><rect width="100" height="100" fill="#f7fbfb" x="500" y="300"></rect><rect width="100" height="100" fill="#f5fafa" x="600" y="300"></rect><rect width="100" height="100" fill="#fcfefd" x="700" y="300"></rect><rect width="100" height="100" fill="#ffffff" x="0" y="400"></rect><rect width="100" height="100" fill="#ffffff" x="100" y="400"></rect><rect width="100" height="100" fill="#ffffff" x="200" y="400"></rect><rect width="100" height="100" fill="#ffffff" x="300" y="400"></rect><rect width="100" height="100" fill="#ffffff" x="400" y="400"></rect><rect width="100" height="100" fill="#ffffff" x="500" y="400"></rect><rect width="100" height="100" fill="#ffffff" x="600" y="400"></rect><rect width="100" height="100" fill="#fefefe" x="700" y="400"></rect></svg>