<svg xmlns="http://www.w3.org/2000/svg" version="1.1" xmlns:xlink="http://www.w3.org/1999/xlink" xmlns:svgjs="http://svgjs.com/svgjs" width="800" height="500"><rect width="100" height="100" fill="#e6eaeb" x="0" y="0"></rect><rect width="100" height="100" fill="#fafbfa" x="100" y="0"></rect><rect width="100" height="100" fill="#fdfdfc" x="200" y="0"></rect><rect width="100" height="100" fill="#fcfcfb" x="300" y="0"></rect><rect width="100" height="100" fill="#fcfcfc" x="400" y="0"></rect><rect width="100" height="100" fill="#fcfcfc" x="500" y="0"></rect><rect width="100" height="100" fill="#fefefe" x="600" y="0"></rect><rect width="100" height="100" fill="#e1e1e1" x="700" y="0"></rect><rect width="100" height="100" fill="#929498" x="0" y="100"></rect><rect width="100" height="100" fill="#464952" x="100" y="100"></rect><rect width="100" height="100" fill="#555861" x="200" y="100"></rect><rect width="100" height="100" fill="#4a4d55" x="300" y="100"></rect><rect width="100" height="100" fill="#bcbdc0" x="400" y="100"></rect><rect width="100" height="100" fill="#858788" x="500" y="100"></rect><rect width="100" height="100" fill="#999a9a" x="600" y="100"></rect><rect width="100" height="100" fill="#ffffff" x="700" y="100"></rect><rect width="100" height="100" fill="#4e535c" x="0" y="200"></rect><rect width="100" height="100" fill="#000009" x="100" y="200"></rect><rect width="100" height="100" fill="#171c2e" x="200" y="200"></rect><rect width="100" height="100" fill="#00000a" x="300" y="200"></rect><rect width="100" height="100" fill="#a1a4a8" x="400" y="200"></rect><rect width="100" height="100" fill="#adaead" x="500" y="200"></rect><rect width="100" height="100" fill="#b3b4b4" x="600" y="200"></rect><rect width="100" height="100" fill="#fefefe" x="700" y="200"></rect><rect width="100" height="100" fill="#babcc0" x="0" y="300"></rect><rect width="100" height="100" fill="#92959a" x="100" y="300"></rect><rect width="100" height="100" fill="#9a9da2" x="200" y="300"></rect><rect width="100" height="100" fill="#94979c" x="300" y="300"></rect><rect width="100" height="100" fill="#dbdcde" x="400" y="300"></rect><rect width="100" height="100" fill="#ffffff" x="500" y="300"></rect><rect width="100" height="100" fill="#ffffff" x="600" y="300"></rect><rect width="100" height="100" fill="#fcfcfc" x="700" y="300"></rect><rect width="100" height="100" fill="#ffffff" x="0" y="400"></rect><rect width="100" height="100" fill="#ffffff" x="100" y="400"></rect><rect width="100" height="100" fill="#ffffff" x="200" y="400"></rect><rect width="100" height="100" fill="#ffffff" x="300" y="400"></rect><rect width="100" height="100" fill="#ffffff" x="400" y="400"></rect><rect width="100" height="100" fill="#f9f9f9" x="500" y="400"></rect><rect width="100" height="100" fill="#fbfbfb" x="600" y="400"></rect><rect width="100" height="100" fill="#fcfcfc" x="700" y="400"></rect></svg>