<svg xmlns="http://www.w3.org/2000/svg" version="1.1" xmlns:xlink="http://www.w3.org/1999/xlink" xmlns:svgjs="http://svgjs.com/svgjs" width="800" height="500"><rect width="100" height="100" fill="#ebf7e7" x="0" y="0"></rect><rect width="100" height="100" fill="#d4e3d1" x="100" y="0"></rect><rect width="100" height="100" fill="#e3f2e1" x="200" y="0"></rect><rect width="100" height="100" fill="#eaf7e8" x="300" y="0"></rect><rect width="100" height="100" fill="#eaf8e9" x="400" y="0"></rect><rect width="100" height="100" fill="#effced" x="500" y="0"></rect><rect width="100" height="100" fill="#f2fff0" x="600" y="0"></rect><rect width="100" height="100" fill="#effdee" x="700" y="0"></rect><rect width="100" height="100" fill="#fefbfe" x="0" y="100"></rect><rect width="100" height="100" fill="#e8e7e8" x="100" y="100"></rect><rect width="100" height="100" fill="#f6f5f7" x="200" y="100"></rect><rect width="100" height="100" fill="#fcf9fc" x="300" y="100"></rect><rect width="100" height="100" fill="#fcfafd" x="400" y="100"></rect><rect width="100" height="100" fill="#fdfbfe" x="500" y="100"></rect><rect width="100" height="100" fill="#fffdff" x="600" y="100"></rect><rect width="100" height="100" fill="#ffffff" x="700" y="100"></rect><rect width="100" height="100" fill="#fbfbfb" x="0" y="200"></rect><rect width="100" height="100" fill="#e8e8e5" x="100" y="200"></rect><rect width="100" height="100" fill="#f0f1f0" x="200" y="200"></rect><rect width="100" height="100" fill="#f7f7f7" x="300" y="200"></rect><rect width="100" height="100" fill="#f7f8f7" x="400" y="200"></rect><rect width="100" height="100" fill="#f6f7f6" x="500" y="200"></rect><rect width="100" height="100" fill="#f8f9f9" x="600" y="200"></rect><rect width="100" height="100" fill="#fefffe" x="700" y="200"></rect><rect width="100" height="100" fill="#fcfbfb" x="0" y="300"></rect><rect width="100" height="100" fill="#e7e6df" x="100" y="300"></rect><rect width="100" height="100" fill="#eff1f0" x="200" y="300"></rect><rect width="100" height="100" fill="#fcfcfc" x="300" y="300"></rect><rect width="100" height="100" fill="#ffffff" x="400" y="300"></rect><rect width="100" height="100" fill="#ffffff" x="500" y="300"></rect><rect width="100" height="100" fill="#ffffff" x="600" y="300"></rect><rect width="100" height="100" fill="#ffffff" x="700" y="300"></rect><rect width="100" height="100" fill="#fafdfa" x="0" y="400"></rect><rect width="100" height="100" fill="#e5f1e2" x="100" y="400"></rect><rect width="100" height="100" fill="#fbfafa" x="200" y="400"></rect><rect width="100" height="100" fill="#fdfdfd" x="300" y="400"></rect><rect width="100" height="100" fill="#fdfdfd" x="400" y="400"></rect><rect width="100" height="100" fill="#fdfdfd" x="500" y="400"></rect><rect width="100" height="100" fill="#fdfdfd" x="600" y="400"></rect><rect width="100" height="100" fill="#fefefe" x="700" y="400"></rect></svg>