<svg xmlns="http://www.w3.org/2000/svg" version="1.1" xmlns:xlink="http://www.w3.org/1999/xlink" xmlns:svgjs="http://svgjs.com/svgjs" width="800" height="500"><rect width="100" height="100" fill="#8a8e92" x="0" y="0"></rect><rect width="100" height="100" fill="#7e8387" x="100" y="0"></rect><rect width="100" height="100" fill="#7f8388" x="200" y="0"></rect><rect width="100" height="100" fill="#81858a" x="300" y="0"></rect><rect width="100" height="100" fill="#82868a" x="400" y="0"></rect><rect width="100" height="100" fill="#808589" x="500" y="0"></rect><rect width="100" height="100" fill="#878b8f" x="600" y="0"></rect><rect width="100" height="100" fill="#9ea1a5" x="700" y="0"></rect><rect width="100" height="100" fill="#e9e9ee" x="0" y="100"></rect><rect width="100" height="100" fill="#e7e8ec" x="100" y="100"></rect><rect width="100" height="100" fill="#eaebef" x="200" y="100"></rect><rect width="100" height="100" fill="#f2f3f7" x="300" y="100"></rect><rect width="100" height="100" fill="#f4f5f9" x="400" y="100"></rect><rect width="100" height="100" fill="#f3f5f8" x="500" y="100"></rect><rect width="100" height="100" fill="#f2f3f7" x="600" y="100"></rect><rect width="100" height="100" fill="#eef0f3" x="700" y="100"></rect><rect width="100" height="100" fill="#e0e0f2" x="0" y="200"></rect><rect width="100" height="100" fill="#e1e1f3" x="100" y="200"></rect><rect width="100" height="100" fill="#ddddef" x="200" y="200"></rect><rect width="100" height="100" fill="#d8d9ea" x="300" y="200"></rect><rect width="100" height="100" fill="#d8d9ea" x="400" y="200"></rect><rect width="100" height="100" fill="#dcdcee" x="500" y="200"></rect><rect width="100" height="100" fill="#dfdff2" x="600" y="200"></rect><rect width="100" height="100" fill="#e0e0f2" x="700" y="200"></rect><rect width="100" height="100" fill="#848794" x="0" y="300"></rect><rect width="100" height="100" fill="#5f626c" x="100" y="300"></rect><rect width="100" height="100" fill="#7d818d" x="200" y="300"></rect><rect width="100" height="100" fill="#6a6d78" x="300" y="300"></rect><rect width="100" height="100" fill="#6b6e79" x="400" y="300"></rect><rect width="100" height="100" fill="#7d818d" x="500" y="300"></rect><rect width="100" height="100" fill="#62636e" x="600" y="300"></rect><rect width="100" height="100" fill="#838693" x="700" y="300"></rect><rect width="100" height="100" fill="#4b4e56" x="0" y="400"></rect><rect width="100" height="100" fill="#2a2f34" x="100" y="400"></rect><rect width="100" height="100" fill="#434950" x="200" y="400"></rect><rect width="100" height="100" fill="#33383e" x="300" y="400"></rect><rect width="100" height="100" fill="#363c41" x="400" y="400"></rect><rect width="100" height="100" fill="#444a50" x="500" y="400"></rect><rect width="100" height="100" fill="#282e32" x="600" y="400"></rect><rect width="100" height="100" fill="#565a61" x="700" y="400"></rect></svg>